<?xml version="1.0" encoding="UTF-8"?>
<svg xmlns="http://www.w3.org/2000/svg" viewBox="0 0 1536 1024" width="1536" height="1024">
  <g fill="white">
    <rect x="563" y="326" width="2" height="1"/><rect x="725" y="326" width="2" height="1"/><rect x="824" y="326" width="1" height="1"/><rect x="563" y="327" width="114" height="1"/><rect x="725" y="327" width="101" height="1"/><rect x="564" y="328" width="114" height="1"/><rect x="726" y="328" width="101" height="1"/><rect x="565" y="329" width="114" height="1"/><rect x="727" y="329" width="100" height="1"/><rect x="565" y="330" width="115" height="1"/><rect x="727" y="330" width="101" height="1"/><rect x="566" y="331" width="114" height="1"/><rect x="728" y="331" width="101" height="1"/><rect x="567" y="332" width="114" height="1"/><rect x="729" y="332" width="101" height="1"/><rect x="568" y="333" width="114" height="1"/><rect x="730" y="333" width="100" height="1"/><rect x="569" y="334" width="114" height="1"/><rect x="730" y="334" width="101" height="1"/><rect x="569" y="335" width="114" height="1"/><rect x="731" y="335" width="101" height="1"/><rect x="570" y="336" width="114" height="1"/><rect x="732" y="336" width="100" height="1"/><rect x="571" y="337" width="114" height="1"/><rect x="733" y="337" width="100" height="1"/><rect x="572" y="338" width="114" height="1"/><rect x="733" y="338" width="101" height="1"/><rect x="572" y="339" width="114" height="1"/><rect x="734" y="339" width="101" height="1"/><rect x="573" y="340" width="114" height="1"/><rect x="735" y="340" width="100" height="1"/><rect x="574" y="341" width="114" height="1"/><rect x="736" y="341" width="100" height="1"/><rect x="575" y="342" width="114" height="1"/><rect x="737" y="342" width="100" height="1"/><rect x="575" y="343" width="114" height="1"/><rect x="737" y="343" width="101" height="1"/><rect x="576" y="344" width="114" height="1"/><rect x="738" y="344" width="100" height="1"/><rect x="577" y="345" width="114" height="1"/><rect x="739" y="345" width="100" height="1"/><rect x="578" y="346" width="114" height="1"/><rect x="740" y="346" width="100" height="1"/><rect x="578" y="347" width="114" height="1"/><rect x="740" y="347" width="101" height="1"/><rect x="579" y="348" width="114" height="1"/><rect x="741" y="348" width="100" height="1"/><rect x="580" y="349" width="114" height="1"/><rect x="742" y="349" width="100" height="1"/><rect x="581" y="350" width="114" height="1"/><rect x="743" y="350" width="100" height="1"/><rect x="581" y="351" width="114" height="1"/><rect x="743" y="351" width="101" height="1"/><rect x="582" y="352" width="114" height="1"/><rect x="744" y="352" width="101" height="1"/><rect x="583" y="353" width="114" height="1"/><rect x="745" y="353" width="100" height="1"/><rect x="584" y="354" width="113" height="1"/><rect x="746" y="354" width="100" height="1"/><rect x="584" y="355" width="114" height="1"/><rect x="746" y="355" width="101" height="1"/><rect x="585" y="356" width="114" height="1"/><rect x="747" y="356" width="101" height="1"/><rect x="586" y="357" width="114" height="1"/><rect x="748" y="357" width="100" height="1"/><rect x="587" y="358" width="113" height="1"/><rect x="749" y="358" width="100" height="1"/><rect x="587" y="359" width="114" height="1"/><rect x="749" y="359" width="101" height="1"/><rect x="588" y="360" width="114" height="1"/><rect x="750" y="360" width="100" height="1"/><rect x="589" y="361" width="114" height="1"/><rect x="751" y="361" width="100" height="1"/><rect x="590" y="362" width="113" height="1"/><rect x="752" y="362" width="100" height="1"/><rect x="590" y="363" width="114" height="1"/><rect x="752" y="363" width="101" height="1"/><rect x="591" y="364" width="114" height="1"/><rect x="753" y="364" width="101" height="1"/><rect x="592" y="365" width="114" height="1"/><rect x="754" y="365" width="100" height="1"/><rect x="593" y="366" width="113" height="1"/><rect x="755" y="366" width="100" height="1"/><rect x="593" y="367" width="114" height="1"/><rect x="755" y="367" width="101" height="1"/><rect x="594" y="368" width="114" height="1"/><rect x="756" y="368" width="101" height="1"/><rect x="595" y="369" width="114" height="1"/><rect x="757" y="369" width="100" height="1"/><rect x="596" y="370" width="113" height="1"/><rect x="758" y="370" width="100" height="1"/><rect x="596" y="371" width="114" height="1"/><rect x="758" y="371" width="101" height="1"/><rect x="597" y="372" width="114" height="1"/><rect x="759" y="372" width="101" height="1"/><rect x="598" y="373" width="114" height="1"/><rect x="760" y="373" width="100" height="1"/><rect x="599" y="374" width="113" height="1"/><rect x="761" y="374" width="100" height="1"/><rect x="600" y="375" width="113" height="1"/><rect x="762" y="375" width="100" height="1"/><rect x="600" y="376" width="114" height="1"/><rect x="762" y="376" width="101" height="1"/><rect x="601" y="377" width="114" height="1"/><rect x="763" y="377" width="100" height="1"/><rect x="602" y="378" width="113" height="1"/><rect x="764" y="378" width="100" height="1"/><rect x="603" y="379" width="113" height="1"/><rect x="765" y="379" width="100" height="1"/><rect x="603" y="380" width="114" height="1"/><rect x="765" y="380" width="101" height="1"/><rect x="604" y="381" width="113" height="1"/><rect x="766" y="381" width="100" height="1"/><rect x="605" y="382" width="113" height="1"/><rect x="767" y="382" width="100" height="1"/><rect x="606" y="383" width="113" height="1"/><rect x="768" y="383" width="100" height="1"/><rect x="606" y="384" width="114" height="1"/><rect x="768" y="384" width="101" height="1"/><rect x="607" y="385" width="113" height="1"/><rect x="769" y="385" width="100" height="1"/><rect x="608" y="386" width="113" height="1"/><rect x="770" y="386" width="100" height="1"/><rect x="609" y="387" width="113" height="1"/><rect x="770" y="387" width="101" height="1"/><rect x="609" y="388" width="114" height="1"/><rect x="771" y="388" width="101" height="1"/><rect x="610" y="389" width="113" height="1"/><rect x="772" y="389" width="100" height="1"/><rect x="611" y="390" width="113" height="1"/><rect x="773" y="390" width="100" height="1"/><rect x="611" y="391" width="114" height="1"/><rect x="773" y="391" width="101" height="1"/><rect x="944" y="391" width="1" height="1"/><rect x="612" y="392" width="114" height="1"/><rect x="774" y="392" width="172" height="1"/><rect x="613" y="393" width="113" height="1"/><rect x="775" y="393" width="172" height="1"/><rect x="614" y="394" width="113" height="1"/><rect x="776" y="394" width="171" height="1"/><rect x="615" y="395" width="113" height="1"/><rect x="776" y="395" width="172" height="1"/><rect x="615" y="396" width="114" height="1"/><rect x="777" y="396" width="172" height="1"/><rect x="616" y="397" width="113" height="1"/><rect x="778" y="397" width="171" height="1"/><rect x="617" y="398" width="113" height="1"/><rect x="779" y="398" width="171" height="1"/><rect x="618" y="399" width="113" height="1"/><rect x="779" y="399" width="172" height="1"/><rect x="618" y="400" width="114" height="1"/><rect x="780" y="400" width="172" height="1"/><rect x="619" y="401" width="113" height="1"/><rect x="781" y="401" width="171" height="1"/><rect x="620" y="402" width="113" height="1"/><rect x="782" y="402" width="171" height="1"/><rect x="621" y="403" width="113" height="1"/><rect x="782" y="403" width="172" height="1"/><rect x="621" y="404" width="114" height="1"/><rect x="783" y="404" width="172" height="1"/><rect x="622" y="405" width="113" height="1"/><rect x="784" y="405" width="171" height="1"/><rect x="623" y="406" width="113" height="1"/><rect x="785" y="406" width="171" height="1"/><rect x="624" y="407" width="113" height="1"/><rect x="786" y="407" width="171" height="1"/><rect x="624" y="408" width="114" height="1"/><rect x="786" y="408" width="172" height="1"/><rect x="625" y="409" width="113" height="1"/><rect x="787" y="409" width="171" height="1"/><rect x="626" y="410" width="113" height="1"/><rect x="788" y="410" width="171" height="1"/><rect x="627" y="411" width="113" height="1"/><rect x="789" y="411" width="171" height="1"/><rect x="627" y="412" width="114" height="1"/><rect x="789" y="412" width="172" height="1"/><rect x="628" y="413" width="113" height="1"/><rect x="790" y="413" width="171" height="1"/><rect x="629" y="414" width="113" height="1"/><rect x="791" y="414" width="171" height="1"/><rect x="630" y="415" width="113" height="1"/><rect x="792" y="415" width="171" height="1"/><rect x="630" y="416" width="114" height="1"/><rect x="792" y="416" width="172" height="1"/><rect x="631" y="417" width="113" height="1"/><rect x="793" y="417" width="171" height="1"/><rect x="632" y="418" width="113" height="1"/><rect x="794" y="418" width="171" height="1"/><rect x="633" y="419" width="113" height="1"/><rect x="795" y="419" width="171" height="1"/><rect x="633" y="420" width="113" height="1"/><rect x="795" y="420" width="172" height="1"/><rect x="634" y="421" width="113" height="1"/><rect x="796" y="421" width="171" height="1"/><rect x="635" y="422" width="113" height="1"/><rect x="797" y="422" width="171" height="1"/><rect x="636" y="423" width="113" height="1"/><rect x="798" y="423" width="171" height="1"/><rect x="636" y="424" width="113" height="1"/><rect x="798" y="424" width="172" height="1"/><rect x="637" y="425" width="113" height="1"/><rect x="799" y="425" width="171" height="1"/><rect x="638" y="426" width="113" height="1"/><rect x="800" y="426" width="171" height="1"/><rect x="639" y="427" width="113" height="1"/><rect x="800" y="427" width="172" height="1"/><rect x="639" y="428" width="113" height="1"/><rect x="801" y="428" width="172" height="1"/><rect x="640" y="429" width="113" height="1"/><rect x="802" y="429" width="171" height="1"/><rect x="641" y="430" width="113" height="1"/><rect x="803" y="430" width="171" height="1"/><rect x="642" y="431" width="113" height="1"/><rect x="803" y="431" width="172" height="1"/><rect x="642" y="432" width="113" height="1"/><rect x="804" y="432" width="172" height="1"/><rect x="643" y="433" width="113" height="1"/><rect x="805" y="433" width="171" height="1"/><rect x="644" y="434" width="113" height="1"/><rect x="806" y="434" width="171" height="1"/><rect x="645" y="435" width="112" height="1"/><rect x="807" y="435" width="171" height="1"/><rect x="645" y="436" width="113" height="1"/><rect x="807" y="436" width="172" height="1"/><rect x="646" y="437" width="113" height="1"/><rect x="808" y="437" width="171" height="1"/><rect x="647" y="438" width="113" height="1"/><rect x="809" y="438" width="171" height="1"/><rect x="648" y="439" width="112" height="1"/><rect x="810" y="439" width="171" height="1"/><rect x="648" y="440" width="113" height="1"/><rect x="810" y="440" width="172" height="1"/><rect x="649" y="441" width="113" height="1"/><rect x="811" y="441" width="171" height="1"/><rect x="650" y="442" width="113" height="1"/><rect x="812" y="442" width="171" height="1"/><rect x="651" y="443" width="112" height="1"/><rect x="813" y="443" width="171" height="1"/><rect x="651" y="444" width="113" height="1"/><rect x="813" y="444" width="172" height="1"/><rect x="652" y="445" width="113" height="1"/><rect x="814" y="445" width="171" height="1"/><rect x="653" y="446" width="113" height="1"/><rect x="815" y="446" width="171" height="1"/><rect x="654" y="447" width="112" height="1"/><rect x="816" y="447" width="171" height="1"/><rect x="654" y="448" width="113" height="1"/><rect x="816" y="448" width="172" height="1"/><rect x="655" y="449" width="113" height="1"/><rect x="817" y="449" width="171" height="1"/><rect x="656" y="450" width="112" height="1"/><rect x="818" y="450" width="171" height="1"/><rect x="657" y="451" width="112" height="1"/><rect x="819" y="451" width="171" height="1"/><rect x="657" y="452" width="113" height="1"/><rect x="819" y="452" width="171" height="1"/><rect x="658" y="453" width="113" height="1"/><rect x="820" y="453" width="171" height="1"/><rect x="659" y="454" width="112" height="1"/><rect x="821" y="454" width="171" height="1"/><rect x="660" y="455" width="112" height="1"/><rect x="822" y="455" width="171" height="1"/><rect x="660" y="456" width="113" height="1"/><rect x="822" y="456" width="172" height="1"/><rect x="661" y="457" width="113" height="1"/><rect x="823" y="457" width="171" height="1"/><rect x="662" y="458" width="112" height="1"/><rect x="824" y="458" width="171" height="1"/><rect x="663" y="459" width="112" height="1"/><rect x="824" y="459" width="172" height="1"/><rect x="663" y="460" width="113" height="1"/><rect x="825" y="460" width="172" height="1"/><rect x="664" y="461" width="113" height="1"/><rect x="826" y="461" width="171" height="1"/><rect x="665" y="462" width="112" height="1"/><rect x="827" y="462" width="171" height="1"/><rect x="666" y="463" width="112" height="1"/><rect x="827" y="463" width="172" height="1"/><rect x="667" y="464" width="112" height="1"/><rect x="828" y="464" width="172" height="1"/><rect x="667" y="465" width="113" height="1"/><rect x="829" y="465" width="171" height="1"/><rect x="668" y="466" width="112" height="1"/><rect x="830" y="466" width="171" height="1"/><rect x="669" y="467" width="112" height="1"/><rect x="830" y="467" width="172" height="1"/><rect x="670" y="468" width="112" height="1"/><rect x="831" y="468" width="172" height="1"/><rect x="670" y="469" width="112" height="1"/><rect x="832" y="469" width="171" height="1"/><rect x="671" y="470" width="112" height="1"/><rect x="833" y="470" width="171" height="1"/><rect x="672" y="471" width="112" height="1"/><rect x="833" y="471" width="172" height="1"/><rect x="672" y="472" width="113" height="1"/><rect x="834" y="472" width="172" height="1"/><rect x="673" y="473" width="112" height="1"/><rect x="674" y="474" width="112" height="1"/><rect x="675" y="475" width="112" height="1"/><rect x="675" y="476" width="113" height="1"/><rect x="676" y="477" width="112" height="1"/><rect x="677" y="478" width="112" height="1"/><rect x="678" y="479" width="112" height="1"/><rect x="678" y="480" width="113" height="1"/><rect x="679" y="481" width="112" height="1"/><rect x="680" y="482" width="112" height="1"/><rect x="681" y="483" width="112" height="1"/><rect x="681" y="484" width="113" height="1"/><rect x="682" y="485" width="112" height="1"/><rect x="683" y="486" width="112" height="1"/><rect x="684" y="487" width="112" height="1"/><rect x="685" y="488" width="112" height="1"/><rect x="685" y="489" width="112" height="1"/><rect x="686" y="490" width="112" height="1"/><rect x="687" y="491" width="111" height="1"/><rect x="687" y="492" width="110" height="1"/><rect x="686" y="493" width="110" height="1"/><rect x="685" y="494" width="110" height="1"/><rect x="685" y="495" width="110" height="1"/><rect x="684" y="496" width="110" height="1"/><rect x="683" y="497" width="110" height="1"/><rect x="682" y="498" width="110" height="1"/><rect x="682" y="499" width="110" height="1"/><rect x="681" y="500" width="110" height="1"/><rect x="680" y="501" width="110" height="1"/><rect x="679" y="502" width="110" height="1"/><rect x="678" y="503" width="111" height="1"/><rect x="678" y="504" width="110" height="1"/><rect x="677" y="505" width="110" height="1"/><rect x="676" y="506" width="110" height="1"/><rect x="675" y="507" width="111" height="1"/><rect x="675" y="508" width="110" height="1"/><rect x="674" y="509" width="110" height="1"/><rect x="673" y="510" width="111" height="1"/><rect x="672" y="511" width="111" height="1"/><rect x="832" y="511" width="173" height="1"/><rect x="672" y="512" width="110" height="1"/><rect x="831" y="512" width="173" height="1"/><rect x="671" y="513" width="110" height="1"/><rect x="830" y="513" width="173" height="1"/><rect x="670" y="514" width="110" height="1"/><rect x="830" y="514" width="173" height="1"/><rect x="669" y="515" width="111" height="1"/><rect x="829" y="515" width="173" height="1"/><rect x="669" y="516" width="110" height="1"/><rect x="828" y="516" width="173" height="1"/><rect x="668" y="517" width="110" height="1"/><rect x="828" y="517" width="173" height="1"/><rect x="667" y="518" width="110" height="1"/><rect x="827" y="518" width="173" height="1"/><rect x="666" y="519" width="111" height="1"/><rect x="826" y="519" width="173" height="1"/><rect x="666" y="520" width="110" height="1"/><rect x="825" y="520" width="173" height="1"/><rect x="665" y="521" width="110" height="1"/><rect x="824" y="521" width="174" height="1"/><rect x="664" y="522" width="110" height="1"/><rect x="824" y="522" width="173" height="1"/><rect x="663" y="523" width="110" height="1"/><rect x="823" y="523" width="173" height="1"/><rect x="663" y="524" width="110" height="1"/><rect x="822" y="524" width="173" height="1"/><rect x="662" y="525" width="110" height="1"/><rect x="821" y="525" width="174" height="1"/><rect x="661" y="526" width="110" height="1"/><rect x="821" y="526" width="173" height="1"/><rect x="660" y="527" width="110" height="1"/><rect x="820" y="527" width="173" height="1"/><rect x="660" y="528" width="110" height="1"/><rect x="819" y="528" width="173" height="1"/><rect x="659" y="529" width="110" height="1"/><rect x="818" y="529" width="173" height="1"/><rect x="658" y="530" width="110" height="1"/><rect x="818" y="530" width="173" height="1"/><rect x="657" y="531" width="110" height="1"/><rect x="817" y="531" width="173" height="1"/><rect x="657" y="532" width="110" height="1"/><rect x="816" y="532" width="173" height="1"/><rect x="656" y="533" width="110" height="1"/><rect x="816" y="533" width="173" height="1"/><rect x="655" y="534" width="110" height="1"/><rect x="815" y="534" width="173" height="1"/><rect x="654" y="535" width="110" height="1"/><rect x="814" y="535" width="173" height="1"/><rect x="653" y="536" width="111" height="1"/><rect x="813" y="536" width="173" height="1"/><rect x="653" y="537" width="110" height="1"/><rect x="812" y="537" width="174" height="1"/><rect x="652" y="538" width="110" height="1"/><rect x="812" y="538" width="173" height="1"/><rect x="651" y="539" width="110" height="1"/><rect x="811" y="539" width="173" height="1"/><rect x="650" y="540" width="111" height="1"/><rect x="810" y="540" width="173" height="1"/><rect x="650" y="541" width="110" height="1"/><rect x="809" y="541" width="174" height="1"/><rect x="649" y="542" width="110" height="1"/><rect x="809" y="542" width="173" height="1"/><rect x="648" y="543" width="110" height="1"/><rect x="808" y="543" width="173" height="1"/><rect x="647" y="544" width="111" height="1"/><rect x="807" y="544" width="173" height="1"/><rect x="647" y="545" width="110" height="1"/><rect x="806" y="545" width="174" height="1"/><rect x="646" y="546" width="110" height="1"/><rect x="806" y="546" width="173" height="1"/><rect x="645" y="547" width="110" height="1"/><rect x="805" y="547" width="173" height="1"/><rect x="644" y="548" width="111" height="1"/><rect x="804" y="548" width="173" height="1"/><rect x="644" y="549" width="110" height="1"/><rect x="803" y="549" width="174" height="1"/><rect x="643" y="550" width="110" height="1"/><rect x="803" y="550" width="173" height="1"/><rect x="642" y="551" width="110" height="1"/><rect x="802" y="551" width="173" height="1"/><rect x="641" y="552" width="110" height="1"/><rect x="801" y="552" width="173" height="1"/><rect x="641" y="553" width="110" height="1"/><rect x="800" y="553" width="173" height="1"/><rect x="640" y="554" width="110" height="1"/><rect x="800" y="554" width="173" height="1"/><rect x="639" y="555" width="110" height="1"/><rect x="799" y="555" width="173" height="1"/><rect x="638" y="556" width="110" height="1"/><rect x="798" y="556" width="173" height="1"/><rect x="638" y="557" width="110" height="1"/><rect x="797" y="557" width="173" height="1"/><rect x="637" y="558" width="110" height="1"/><rect x="797" y="558" width="173" height="1"/><rect x="636" y="559" width="110" height="1"/><rect x="796" y="559" width="173" height="1"/><rect x="635" y="560" width="110" height="1"/><rect x="795" y="560" width="173" height="1"/><rect x="635" y="561" width="110" height="1"/><rect x="794" y="561" width="173" height="1"/><rect x="634" y="562" width="110" height="1"/><rect x="794" y="562" width="173" height="1"/><rect x="633" y="563" width="110" height="1"/><rect x="793" y="563" width="173" height="1"/><rect x="632" y="564" width="110" height="1"/><rect x="792" y="564" width="173" height="1"/><rect x="632" y="565" width="110" height="1"/><rect x="791" y="565" width="173" height="1"/><rect x="631" y="566" width="110" height="1"/><rect x="790" y="566" width="174" height="1"/><rect x="630" y="567" width="110" height="1"/><rect x="790" y="567" width="173" height="1"/><rect x="629" y="568" width="110" height="1"/><rect x="789" y="568" width="173" height="1"/><rect x="628" y="569" width="111" height="1"/><rect x="788" y="569" width="173" height="1"/><rect x="628" y="570" width="110" height="1"/><rect x="787" y="570" width="174" height="1"/><rect x="627" y="571" width="110" height="1"/><rect x="787" y="571" width="173" height="1"/><rect x="626" y="572" width="110" height="1"/><rect x="786" y="572" width="173" height="1"/><rect x="626" y="573" width="110" height="1"/><rect x="785" y="573" width="173" height="1"/><rect x="625" y="574" width="110" height="1"/><rect x="784" y="574" width="174" height="1"/><rect x="624" y="575" width="110" height="1"/><rect x="784" y="575" width="173" height="1"/><rect x="623" y="576" width="110" height="1"/><rect x="783" y="576" width="173" height="1"/><rect x="623" y="577" width="110" height="1"/><rect x="782" y="577" width="173" height="1"/><rect x="622" y="578" width="110" height="1"/><rect x="781" y="578" width="174" height="1"/><rect x="621" y="579" width="110" height="1"/><rect x="781" y="579" width="173" height="1"/><rect x="620" y="580" width="110" height="1"/><rect x="780" y="580" width="173" height="1"/><rect x="620" y="581" width="110" height="1"/><rect x="779" y="581" width="173" height="1"/><rect x="619" y="582" width="110" height="1"/><rect x="778" y="582" width="174" height="1"/><rect x="618" y="583" width="110" height="1"/><rect x="778" y="583" width="173" height="1"/><rect x="617" y="584" width="110" height="1"/><rect x="777" y="584" width="173" height="1"/><rect x="616" y="585" width="110" height="1"/><rect x="776" y="585" width="173" height="1"/><rect x="616" y="586" width="110" height="1"/><rect x="775" y="586" width="173" height="1"/><rect x="615" y="587" width="110" height="1"/><rect x="774" y="587" width="174" height="1"/><rect x="614" y="588" width="110" height="1"/><rect x="774" y="588" width="173" height="1"/><rect x="613" y="589" width="110" height="1"/><rect x="773" y="589" width="173" height="1"/><rect x="613" y="590" width="110" height="1"/><rect x="772" y="590" width="173" height="1"/><rect x="612" y="591" width="110" height="1"/><rect x="771" y="591" width="103" height="1"/><rect x="611" y="592" width="110" height="1"/><rect x="771" y="592" width="102" height="1"/><rect x="610" y="593" width="110" height="1"/><rect x="770" y="593" width="102" height="1"/><rect x="610" y="594" width="110" height="1"/><rect x="769" y="594" width="102" height="1"/><rect x="609" y="595" width="110" height="1"/><rect x="769" y="595" width="102" height="1"/><rect x="608" y="596" width="110" height="1"/><rect x="768" y="596" width="102" height="1"/><rect x="607" y="597" width="110" height="1"/><rect x="767" y="597" width="102" height="1"/><rect x="607" y="598" width="110" height="1"/><rect x="766" y="598" width="102" height="1"/><rect x="606" y="599" width="110" height="1"/><rect x="766" y="599" width="102" height="1"/><rect x="605" y="600" width="110" height="1"/><rect x="765" y="600" width="102" height="1"/><rect x="604" y="601" width="110" height="1"/><rect x="764" y="601" width="102" height="1"/><rect x="604" y="602" width="110" height="1"/><rect x="763" y="602" width="102" height="1"/><rect x="603" y="603" width="110" height="1"/><rect x="763" y="603" width="102" height="1"/><rect x="602" y="604" width="110" height="1"/><rect x="762" y="604" width="102" height="1"/><rect x="601" y="605" width="110" height="1"/><rect x="761" y="605" width="102" height="1"/><rect x="601" y="606" width="110" height="1"/><rect x="760" y="606" width="102" height="1"/><rect x="600" y="607" width="110" height="1"/><rect x="759" y="607" width="103" height="1"/><rect x="599" y="608" width="110" height="1"/><rect x="759" y="608" width="102" height="1"/><rect x="598" y="609" width="110" height="1"/><rect x="758" y="609" width="102" height="1"/><rect x="598" y="610" width="110" height="1"/><rect x="757" y="610" width="102" height="1"/><rect x="597" y="611" width="110" height="1"/><rect x="756" y="611" width="103" height="1"/><rect x="596" y="612" width="110" height="1"/><rect x="756" y="612" width="102" height="1"/><rect x="595" y="613" width="110" height="1"/><rect x="755" y="613" width="102" height="1"/><rect x="595" y="614" width="110" height="1"/><rect x="754" y="614" width="102" height="1"/><rect x="594" y="615" width="110" height="1"/><rect x="753" y="615" width="103" height="1"/><rect x="593" y="616" width="110" height="1"/><rect x="752" y="616" width="103" height="1"/><rect x="592" y="617" width="110" height="1"/><rect x="752" y="617" width="102" height="1"/><rect x="591" y="618" width="110" height="1"/><rect x="751" y="618" width="102" height="1"/><rect x="591" y="619" width="110" height="1"/><rect x="750" y="619" width="103" height="1"/><rect x="590" y="620" width="110" height="1"/><rect x="750" y="620" width="102" height="1"/><rect x="589" y="621" width="110" height="1"/><rect x="749" y="621" width="102" height="1"/><rect x="588" y="622" width="110" height="1"/><rect x="748" y="622" width="102" height="1"/><rect x="588" y="623" width="110" height="1"/><rect x="747" y="623" width="102" height="1"/><rect x="587" y="624" width="110" height="1"/><rect x="746" y="624" width="103" height="1"/><rect x="586" y="625" width="110" height="1"/><rect x="746" y="625" width="102" height="1"/><rect x="585" y="626" width="110" height="1"/><rect x="745" y="626" width="102" height="1"/><rect x="585" y="627" width="110" height="1"/><rect x="744" y="627" width="102" height="1"/><rect x="584" y="628" width="110" height="1"/><rect x="744" y="628" width="102" height="1"/><rect x="583" y="629" width="110" height="1"/><rect x="743" y="629" width="102" height="1"/><rect x="582" y="630" width="110" height="1"/><rect x="742" y="630" width="102" height="1"/><rect x="581" y="631" width="111" height="1"/><rect x="741" y="631" width="102" height="1"/><rect x="581" y="632" width="110" height="1"/><rect x="740" y="632" width="103" height="1"/><rect x="580" y="633" width="110" height="1"/><rect x="740" y="633" width="102" height="1"/><rect x="579" y="634" width="110" height="1"/><rect x="739" y="634" width="102" height="1"/><rect x="578" y="635" width="111" height="1"/><rect x="738" y="635" width="102" height="1"/><rect x="578" y="636" width="110" height="1"/><rect x="737" y="636" width="103" height="1"/><rect x="577" y="637" width="110" height="1"/><rect x="737" y="637" width="102" height="1"/><rect x="576" y="638" width="110" height="1"/><rect x="736" y="638" width="102" height="1"/><rect x="575" y="639" width="111" height="1"/><rect x="735" y="639" width="102" height="1"/><rect x="575" y="640" width="110" height="1"/><rect x="734" y="640" width="103" height="1"/><rect x="574" y="641" width="110" height="1"/><rect x="734" y="641" width="102" height="1"/><rect x="573" y="642" width="110" height="1"/><rect x="733" y="642" width="102" height="1"/><rect x="572" y="643" width="111" height="1"/><rect x="732" y="643" width="102" height="1"/><rect x="572" y="644" width="110" height="1"/><rect x="731" y="644" width="103" height="1"/><rect x="571" y="645" width="110" height="1"/><rect x="731" y="645" width="102" height="1"/><rect x="570" y="646" width="110" height="1"/><rect x="730" y="646" width="102" height="1"/><rect x="569" y="647" width="110" height="1"/><rect x="729" y="647" width="102" height="1"/><rect x="569" y="648" width="110" height="1"/><rect x="728" y="648" width="102" height="1"/><rect x="568" y="649" width="110" height="1"/><rect x="728" y="649" width="102" height="1"/><rect x="567" y="650" width="110" height="1"/><rect x="727" y="650" width="102" height="1"/><rect x="566" y="651" width="110" height="1"/><rect x="726" y="651" width="102" height="1"/><rect x="566" y="652" width="110" height="1"/><rect x="725" y="652" width="102" height="1"/><rect x="565" y="653" width="110" height="1"/><rect x="725" y="653" width="102" height="1"/><rect x="564" y="654" width="110" height="1"/><rect x="724" y="654" width="102" height="1"/><rect x="564" y="655" width="8" height="1"/><rect x="573" y="655" width="1" height="1"/><rect x="576" y="655" width="3" height="1"/><rect x="584" y="655" width="5" height="1"/><rect x="590" y="655" width="1" height="1"/><rect x="592" y="655" width="3" height="1"/><rect x="601" y="655" width="3" height="1"/><rect x="610" y="655" width="2" height="1"/><rect x="615" y="655" width="1" height="1"/><rect x="671" y="655" width="2" height="1"/><rect x="769" y="655" width="1" height="1"/><rect x="776" y="655" width="4" height="1"/><rect x="781" y="655" width="1" height="1"/><rect x="785" y="655" width="1" height="1"/><rect x="800" y="655" width="3" height="1"/>
  </g>
</svg>